<svg width="240" height="48" viewBox="0 0 240 48" fill="none" xmlns="http://www.w3.org/2000/svg">
<rect width="240" height="48" fill="white"/>
<mask id="mask0_12_39" style="mask-type:luminance" maskUnits="userSpaceOnUse" x="6" y="0" width="229" height="48">
<path d="M234.355 0H6V48H234.355V0Z" fill="white"/>
</mask>
<g mask="url(#mask0_12_39)">
<path d="M109.63 8.59625C109.576 8.42583 109.414 8.30939 109.236 8.30939H93.3932C93.306 8.30939 93.2228 8.33437 93.1524 8.38436L71.5095 23.6572C71.3601 23.7611 71.2976 23.948 71.3518 24.1227C71.4058 24.2971 71.5677 24.4135 71.7464 24.4135H87.8508C87.938 24.4135 88.0209 24.3843 88.0916 24.3346L109.477 9.06148C109.622 8.95752 109.685 8.76666 109.63 8.59625Z" fill="#231815"/>
<path d="M234.289 8.49654C234.214 8.38009 234.081 8.30964 233.94 8.30964H197.755C197.647 8.30964 197.547 8.35112 197.468 8.42184L180.832 24.1559L191.091 0.58165C191.17 0.399023 191.107 0.186858 190.945 0.0749526C190.783 -0.0372368 190.563 -0.0207624 190.417 0.120397L181.917 8.42581L159.518 29.6194L168.663 8.8953C168.721 8.76664 168.708 8.61696 168.629 8.50079C168.555 8.38434 168.422 8.31362 168.28 8.31362H148.699C148.532 8.31362 148.383 8.40934 148.316 8.56299L147.382 10.6861C147.323 10.815 147.336 10.9644 147.415 11.0809C147.49 11.197 147.622 11.2678 147.764 11.2678H152.691L141.453 36.7407H133.978L146.268 8.89957C146.326 8.77062 146.314 8.62122 146.235 8.50477C146.16 8.38861 146.027 8.31789 145.886 8.31789H109.481C109.315 8.31789 109.169 8.41332 109.103 8.56726L95.72 38.8763L72.4902 23.8358L79.0799 8.90383C79.1381 8.77488 79.1256 8.6252 79.0466 8.50904C78.9677 8.39259 78.8387 8.32214 78.6976 8.32214H42.2886C42.1224 8.32214 41.977 8.41758 41.9105 8.57124L29.4751 36.7489H22.0044L34.2905 8.9078C34.3487 8.77914 34.3362 8.62946 34.2572 8.51301C34.1825 8.39684 34.0496 8.32612 33.9082 8.32612H19.9314C19.7652 8.32612 19.6198 8.42184 19.5533 8.57549L6.03749 39.1006C5.97927 39.2293 5.99176 39.379 6.07072 39.4952C6.14542 39.6116 6.27834 39.682 6.41979 39.682H42.8288C42.9949 39.682 43.1404 39.5866 43.2068 39.433L55.6383 11.2595H63.1126L50.8269 39.1006C50.7687 39.2293 50.7812 39.379 50.8601 39.4952C50.9348 39.6116 51.0677 39.682 51.2092 39.682H65.2235C65.3896 39.682 65.5351 39.5866 65.6055 39.433L69.4864 30.6373L83.3553 39.6156C83.4217 39.6573 83.5007 39.682 83.5796 39.682H95.5828C95.6578 39.682 95.7242 39.6573 95.7864 39.6241C95.8489 39.6613 95.9236 39.682 95.9983 39.682H110.013C110.179 39.682 110.324 39.5866 110.391 39.433L122.826 11.2595H130.301L118.015 39.1006C117.957 39.2293 117.969 39.379 118.048 39.4952C118.123 39.6116 118.256 39.682 118.397 39.682H154.811C154.918 39.682 155.018 39.6406 155.097 39.5701L171.725 23.8401L161.471 47.4183C161.392 47.6012 161.454 47.8131 161.616 47.9253C161.687 47.975 161.77 48 161.853 48C161.957 48 162.065 47.9585 162.144 47.8795L170.64 39.5701L192.661 18.7421L183.678 39.1006C183.62 39.2293 183.633 39.379 183.712 39.4952C183.786 39.6116 183.919 39.682 184.061 39.682H198.079C198.245 39.682 198.391 39.5866 198.461 39.433L210.893 11.2595H218.363L206.086 39.1006C206.027 39.2293 206.04 39.379 206.119 39.4952C206.194 39.6116 206.326 39.682 206.468 39.682H220.478C220.644 39.682 220.789 39.5866 220.86 39.433L234.339 8.88707C234.397 8.75841 234.384 8.60872 234.305 8.49227L234.289 8.49654Z" fill="#231815"/>
</g>
</svg>
