<svg width="1080" height="1080" viewBox="0 0 1080 1080" fill="none" xmlns="http://www.w3.org/2000/svg">
<rect width="1080" height="1080" fill="white"/>
<g clip-path="url(#clip0_1_2)">
<path d="M502.865 485.266C502.675 484.666 502.105 484.256 501.476 484.256H445.697C445.39 484.256 445.097 484.344 444.849 484.52L368.648 538.293C368.122 538.659 367.902 539.317 368.093 539.932C368.283 540.546 368.853 540.956 369.482 540.956H426.183C426.49 540.956 426.782 540.853 427.031 540.678L502.324 486.904C502.836 486.538 503.056 485.866 502.865 485.266Z" fill="#231815"/>
<path d="M941.766 484.915C941.503 484.505 941.035 484.257 940.537 484.257H813.137C812.757 484.257 812.406 484.403 812.128 484.652L753.555 540.049L789.673 457.048C789.951 456.405 789.732 455.658 789.161 455.264C788.591 454.869 787.815 454.927 787.303 455.424L757.373 484.666L678.511 559.285L710.708 486.319C710.913 485.866 710.869 485.339 710.591 484.93C710.328 484.52 709.86 484.271 709.362 484.271H640.418C639.833 484.271 639.306 484.608 639.072 485.149L635.781 492.624C635.576 493.078 635.62 493.604 635.898 494.014C636.161 494.423 636.629 494.672 637.127 494.672H654.476L614.906 584.358H588.589L631.86 486.334C632.065 485.88 632.021 485.354 631.743 484.944C631.48 484.535 631.012 484.286 630.514 484.286H502.339C501.754 484.286 501.242 484.622 501.008 485.164L453.889 591.877L372.101 538.922L395.302 486.349C395.507 485.895 395.463 485.368 395.185 484.959C394.907 484.549 394.453 484.301 393.956 484.301H265.766C265.181 484.301 264.669 484.637 264.435 485.178L220.652 584.387H194.349L237.606 486.363C237.811 485.91 237.767 485.383 237.489 484.973C237.226 484.564 236.758 484.315 236.26 484.315H187.05C186.465 484.315 185.953 484.652 185.719 485.193L138.132 592.667C137.927 593.12 137.971 593.647 138.249 594.056C138.512 594.466 138.98 594.714 139.478 594.714H267.668C268.253 594.714 268.765 594.378 268.999 593.837L312.768 494.643H339.084L295.828 592.667C295.623 593.12 295.667 593.647 295.945 594.056C296.208 594.466 296.676 594.714 297.174 594.714H346.516C347.101 594.714 347.613 594.378 347.861 593.837L361.525 562.869L410.355 594.48C410.589 594.627 410.867 594.714 411.145 594.714H453.406C453.67 594.714 453.904 594.627 454.123 594.51C454.343 594.641 454.606 594.714 454.869 594.714H504.211C504.797 594.714 505.309 594.378 505.543 593.837L549.326 494.643H575.643L532.386 592.667C532.181 593.12 532.225 593.647 532.503 594.056C532.766 594.466 533.235 594.714 533.732 594.714H661.937C662.317 594.714 662.668 594.568 662.946 594.32L721.489 538.937L685.386 621.952C685.108 622.596 685.328 623.342 685.898 623.737C686.147 623.912 686.439 624 686.732 624C687.098 624 687.478 623.854 687.756 623.576L717.671 594.32L795.203 520.988L763.576 592.667C763.371 593.12 763.415 593.647 763.693 594.056C763.956 594.466 764.424 594.714 764.922 594.714H814.278C814.863 594.714 815.375 594.378 815.624 593.837L859.393 494.643H885.695L842.468 592.667C842.263 593.12 842.307 593.647 842.585 594.056C842.848 594.466 843.316 594.714 843.813 594.714H893.141C893.726 594.714 894.238 594.378 894.487 593.837L941.942 486.29C942.146 485.837 942.103 485.31 941.825 484.9L941.766 484.915Z" fill="#231815"/>
</g>
<defs>
<clipPath id="clip0_1_2">
<rect width="804" height="169" fill="white" transform="translate(138 455)"/>
</clipPath>
</defs>
</svg>
